<svg width="45" height="45" viewBox="0 0 45 45" fill="none" xmlns="http://www.w3.org/2000/svg">
<path d="M3.12944 23.5733C3.52947 23.1704 3.92079 22.7587 4.33079 22.3645C5.6306 21.117 7.1647 20.6991 8.88448 21.238C10.6255 21.7832 11.6424 23.0219 11.9826 24.8121C12.0312 25.0703 12.0337 25.3397 12.0337 25.603C12.0362 30.5604 12.0474 35.5167 12.0312 40.4741C12.0225 43.0377 9.99985 45.0312 7.48872 44.9838C6.34219 44.9626 5.31905 44.5783 4.49031 43.7712C3.40859 42.7171 2.33933 41.648 1.28628 40.564C0.49368 39.7481 0.0849198 38.7389 0.0811811 37.6099C0.0649802 32.2632 -0.115722 26.9078 0.12106 21.5724C0.477479 13.5074 4.27721 7.31868 11.1651 3.12716C15.3025 0.609748 19.8699 -0.403204 24.6778 0.144438C33.0325 1.09626 39.1053 5.42626 42.844 12.9623C44.3619 16.0223 44.9863 19.3119 44.9863 22.7238C44.9863 27.5403 44.9825 32.3568 45 37.1746C45.0049 38.6428 44.5214 39.8729 43.4621 40.8945C42.5312 41.7915 41.6414 42.7308 40.7142 43.6328C39.4219 44.8902 37.8778 45.3081 36.1618 44.7705C34.4843 44.244 33.4649 43.0477 33.0948 41.3237C33.0238 40.9918 33.0188 40.6426 33.0175 40.3007C33.0126 35.4368 33.0101 30.5742 33.0163 25.7102C33.0188 23.365 34.3921 21.5774 36.6017 21.117C38.152 20.7952 39.5315 21.2156 40.6768 22.3221C41.098 22.7288 41.4844 23.1716 41.9442 23.5534C42.0863 16.2544 39.4281 10.2777 33.2768 6.28328C26.4736 1.86845 19.2992 1.73622 12.3577 5.91278C5.82127 9.84607 2.97241 15.9712 3.12944 23.5733Z" fill="#131A22"/>
<path d="M23.9933 33.0333C23.9933 34.5212 24.0119 36.0102 23.9871 37.4968C23.9684 38.6928 22.8715 39.3361 21.7907 38.8207C21.2535 38.5637 21.0134 38.1091 21.011 37.5478C20.9998 34.5249 20.9923 31.502 21.0134 28.4804C21.0197 27.6359 21.7074 27 22.5021 27C23.3242 27 23.9784 27.6446 23.9883 28.5239C24.0057 30.0254 23.9933 31.5293 23.9933 33.0333Z" fill="#131A22"/>
<path d="M27.0043 33.0363C27.0043 32.5416 26.9931 32.0469 27.0068 31.5534C27.0316 30.6519 27.678 29.9902 28.5081 30.0001C29.3283 30.01 29.9635 30.6482 29.9834 31.5337C30.0057 32.5218 30.0057 33.5112 29.9822 34.4994C29.9598 35.4368 29.3469 36.0193 28.4572 35.9995C27.585 35.9797 27.0304 35.4022 27.0068 34.4734C26.9944 33.9948 27.0043 33.5149 27.0043 33.0363Z" fill="#131A22"/>
<path d="M17.9913 33.0478C17.9913 33.5749 18.0097 34.1033 17.9876 34.6292C17.9543 35.4086 17.4226 35.9283 16.6275 35.9942C15.8656 36.0576 15.1763 35.5964 15.0951 34.8355C14.9671 33.6346 14.9708 32.4187 15.0914 31.2165C15.1665 30.4681 15.8927 29.9547 16.6041 30.0032C17.3795 30.0566 17.9654 30.6633 17.9913 31.4664C18.0085 31.9935 17.9949 32.5207 17.9949 33.0478C17.9937 33.0478 17.9925 33.0478 17.9913 33.0478Z" fill="#131A22"/>
</svg>
