<svg width="44" height="45" viewBox="0 0 44 45" fill="none" xmlns="http://www.w3.org/2000/svg">
<path d="M33.2634 6.45068C31.4286 3.32382 28.7402 1.2076 25.169 0.306003C24.7798 0.207519 24.3753 0.189933 23.9848 0.0996561C23.7105 0.0351727 23.4303 0 23.1489 0H21.9671C21.7045 0 21.4465 0.0457246 21.1874 0.085587C21.1476 0.0914491 21.1019 0.0844146 21.062 0.0891043C19.267 0.328279 17.6104 0.943802 16.0886 1.92512C10.4609 5.5526 8.28374 13.0174 9.91106 18.8561C10.7282 21.7872 12.4165 24.1742 14.555 26.2799C15.6219 27.3304 16.812 28.2332 17.9879 29.1535C19.0548 29.9894 19.2201 30.6378 18.7007 31.8677C18.4111 32.5535 18.0993 33.23 17.7769 33.9007C16.7826 35.9712 16.622 38.1179 17.2469 40.3103C17.8988 42.5989 19.1756 44.3294 21.6341 44.9179C21.64 44.9191 21.6447 44.9214 21.6505 44.925C21.7174 44.9672 21.7889 45 21.8686 45H22.9191C23.0082 45 23.0856 44.9508 23.1724 44.9343C24.8478 44.6975 26.0647 43.7572 26.8936 42.3491C28.161 40.1977 28.4659 37.881 27.8175 35.4588C27.4716 34.1668 26.7764 33.0178 26.2875 31.7844C25.8314 30.6355 25.978 30.0258 26.9358 29.2379C27.6369 28.6623 28.3721 28.1276 29.0661 27.5438C31.343 25.6292 33.3127 23.4473 34.4569 20.6652C36.4817 15.741 35.9154 10.9715 33.2634 6.45068ZM28.5925 23.5458C25.0131 27.2636 19.5695 27.1346 16.1554 23.2562C13.8914 20.6851 12.9922 17.6368 13.1657 14.2543C13.3111 11.4194 14.242 8.87174 16.1589 6.74613C17.9304 4.78115 20.117 3.66852 22.8183 3.77052C25.4633 3.87017 27.5361 5.11529 29.1787 7.11193C31.0581 9.39581 31.846 12.076 31.8952 15.095C31.826 18.2488 30.8822 21.1681 28.5925 23.5458Z" fill="#020202"/>
<path d="M8.46084 23.4485C8.11146 23.4145 7.76091 23.384 7.4338 23.2433C6.30476 22.7556 5.70565 21.8962 5.6353 20.6675C5.60482 20.1458 5.30233 19.7764 4.84626 19.6991C4.42888 19.6275 3.96812 19.8843 3.82977 20.2911C3.77467 20.4541 3.77232 20.6358 3.75356 20.8093C3.5859 22.2889 2.61983 23.2879 1.1414 23.418C0.623188 23.4637 0.263253 23.6513 0.0100098 24.0839C0.0100098 24.2891 0.0100098 24.4943 0.0100098 24.6995C0.24684 25.0125 0.494221 25.2857 0.936225 25.3185C2.655 25.4475 3.59294 26.3889 3.7688 28.1311C3.82625 28.7045 4.21784 29.0855 4.72785 29.0656C5.23199 29.0456 5.59544 28.6658 5.6353 28.1171C5.75724 26.4522 6.77724 25.4275 8.42802 25.3138C8.99547 25.2751 9.38941 24.8882 9.38823 24.3723C9.38472 23.8752 9.01306 23.5012 8.46084 23.4485Z" fill="#020202"/>
<path d="M42.9958 3.767C42.8211 3.74472 42.6464 3.73183 42.4729 3.70603C41.2032 3.5161 40.182 2.46678 40.114 1.18884C40.0858 0.655385 39.8912 0.287244 39.475 0C39.2698 0 39.0647 0 38.8595 0C38.4269 0.254416 38.1806 0.607316 38.2006 1.13373C38.2076 1.31898 38.1537 1.51126 38.1033 1.69298C37.7609 2.90761 36.8265 3.62045 35.4102 3.75762C34.8263 3.8139 34.4559 4.18556 34.4664 4.70494C34.477 5.21963 34.8697 5.59012 35.4442 5.62647C35.5755 5.63467 35.708 5.63702 35.837 5.66047C37.2075 5.90667 38.0833 6.89151 38.2111 8.36408C38.2486 8.79787 38.3952 9.13436 38.8067 9.30319C39.4422 9.56347 40.0448 9.11912 40.0929 8.37463C40.1714 7.12834 40.7893 6.26544 41.9488 5.79881C42.2783 5.66633 42.6277 5.64288 42.9794 5.61591C43.4824 5.57722 43.8493 5.15632 43.8411 4.67446C43.8341 4.20549 43.4824 3.82797 42.9958 3.767Z" fill="#020202"/>
<path d="M40.2148 29.9906C39.6086 29.9601 39.0681 29.7725 38.598 29.3974C37.9356 28.8686 37.5698 28.1816 37.524 27.3245C37.4877 26.6504 37.1477 26.274 36.599 26.2623C36.0398 26.2506 35.6622 26.6246 35.6294 27.2764C35.5954 27.9459 35.3785 28.5333 34.9365 29.0327C34.4077 29.6307 33.743 29.946 32.9399 29.9894C32.2083 30.0293 31.8096 30.4795 31.9116 31.1103C31.9879 31.5769 32.356 31.8477 32.9797 31.8911C34.1228 31.9697 34.9177 32.557 35.4043 33.5747C35.5696 33.9206 35.6048 34.3004 35.6364 34.6826C35.6927 35.3533 36.2086 35.7367 36.8124 35.5924C37.2368 35.4904 37.4947 35.1329 37.524 34.556C37.5662 33.7166 37.9191 33.0377 38.5593 32.509C39.0353 32.1162 39.5875 31.9169 40.2089 31.8864C40.8725 31.8536 41.2477 31.496 41.25 30.9414C41.2512 30.3834 40.8783 30.0246 40.2148 29.9906Z" fill="#020202"/>
<path d="M27.8117 9.21055C26.5724 10.4545 25.3297 11.6961 24.0869 12.9377C21.6447 15.3798 19.2014 17.822 16.7616 20.2677C16.6326 20.3978 16.4134 20.4858 16.5928 20.7636C17.5026 22.1752 18.6644 23.2855 20.239 23.935C20.4641 24.0276 20.579 23.9632 20.7279 23.8143C23.7469 20.7894 26.7694 17.7681 29.7943 14.7491C29.9244 14.6189 29.9994 14.4923 29.9889 14.2942C29.881 12.3257 29.2737 10.5284 28.14 8.80606C28.0157 8.96199 27.9254 9.09682 27.8117 9.21055Z" fill="#020202"/>
<path d="M25.5092 6.84227C25.7261 6.62654 25.7742 6.52689 25.4541 6.36978C24.8726 6.08606 24.2735 5.86799 23.6427 5.73198C23.4188 5.68391 23.2394 5.70502 23.0553 5.89143C20.4654 8.49656 17.865 11.0923 15.2692 13.6904C15.179 13.7807 15.0582 13.8557 15.0512 14.0046C15.0031 15.0246 14.989 16.0423 15.2259 17.1315C15.8086 16.5441 16.3397 16.0048 16.8743 15.469C19.7503 12.5918 22.6262 9.71354 25.5092 6.84227Z" fill="#020202"/>
<path d="M29.7591 16.9767C27.3251 19.4095 24.8689 21.8669 22.4056 24.329C26.3344 24.6092 29.5375 20.3603 29.7591 16.9767Z" fill="#020202"/>
<path d="M15.2704 12.8662C17.6551 10.4826 20.0633 8.07447 22.482 5.65693C18.5602 5.535 15.5951 9.61973 15.2704 12.8662Z" fill="#020202"/>
</svg>
