<svg width="13" height="15" viewBox="0 0 13 15" fill="none" xmlns="http://www.w3.org/2000/svg">
<path d="M11.9167 15H1.08333C0.794444 15 0.541667 14.8929 0.325 14.6786C0.108333 14.4643 0 14.2143 0 13.9286V4.46429C0 4.17857 0.108333 3.92857 0.325 3.71429C0.541667 3.5 0.794444 3.39286 1.08333 3.39286H3.06944C3.06944 2.45238 3.38843 1.65179 4.02639 0.991071C4.66435 0.330357 5.4588 0 6.40972 0C7.36065 0 8.18519 0.330357 8.88333 0.991071C9.58148 1.65179 9.93056 2.45238 9.93056 3.39286H11.9167C12.2056 3.39286 12.4583 3.5 12.675 3.71429C12.8917 3.92857 13 4.17857 13 4.46429V13.9286C13 14.2143 12.8917 14.4643 12.675 14.6786C12.4583 14.8929 12.2056 15 11.9167 15ZM4.15278 3.39286H8.84722C8.84722 2.7381 8.62153 2.1875 8.17014 1.74107C7.71875 1.29464 7.16204 1.07143 6.5 1.07143C5.83796 1.07143 5.28125 1.29464 4.82986 1.74107C4.37847 2.1875 4.15278 2.7381 4.15278 3.39286ZM6.5 8.75C7.3787 8.75 8.17917 8.44345 8.90139 7.83036C9.62361 7.21726 9.98472 6.52976 9.98472 5.76786C9.98472 5.6369 9.93056 5.52083 9.82222 5.41964C9.71389 5.31845 9.58148 5.26786 9.425 5.26786C9.29259 5.26786 9.17523 5.3125 9.07292 5.40179C8.9706 5.49107 8.90741 5.60714 8.88333 5.75C8.76296 6.30952 8.47708 6.77083 8.02569 7.13393C7.57431 7.49702 7.06574 7.67857 6.5 7.67857C5.93426 7.67857 5.42569 7.49702 4.97431 7.13393C4.52292 6.77083 4.23704 6.30952 4.11667 5.75C4.09259 5.60714 4.02639 5.49107 3.91806 5.40179C3.80972 5.3125 3.68935 5.26786 3.55694 5.26786C3.4125 5.26786 3.28611 5.31845 3.17778 5.41964C3.06944 5.52083 3.01528 5.6369 3.01528 5.76786C3.01528 6.52976 3.37338 7.21726 4.08958 7.83036C4.80579 8.44345 5.60926 8.75 6.5 8.75Z" fill="#F9E000"/>
</svg>
