<svg width="51" height="45" viewBox="0 0 51 45" fill="none" xmlns="http://www.w3.org/2000/svg">
<path d="M0 28.3768C0 28.1653 0.0290711 27.9512 0.120249 27.7609C0.120249 27.7595 0.120249 27.7595 0.12157 27.7582C0.453245 27.0933 1.13245 26.7364 1.78391 26.8858C2.49483 27.0484 2.96261 27.6287 2.97054 28.39C2.97979 29.3312 2.97054 30.2723 2.97583 31.2134C2.97715 31.3562 2.88729 31.5756 3.1714 31.5703C5.02798 31.5426 6.90175 31.7237 8.70548 31.068C9.83925 30.6556 10.8554 30.0608 11.7646 29.269C11.9112 29.1422 11.898 28.9545 11.7328 28.8514C11.4421 28.6703 11.1567 28.476 10.8885 28.2645C10.3031 27.8032 10.1683 26.9717 10.566 26.3412C10.8911 25.8257 11.269 25.3446 11.6033 24.8343C11.8134 24.5145 11.9641 24.7616 12.1134 24.8687C14.196 26.3505 16.2732 27.8375 18.3531 29.3219C20.0564 30.5393 21.7531 31.7646 23.4696 32.9635C23.7815 33.1816 23.8 33.3244 23.574 33.6059C23.2979 33.9536 23.0759 34.3435 22.8129 34.7017C22.2724 35.438 21.4479 35.5821 20.6828 35.0771C20.3115 34.8326 19.9388 34.5867 19.5926 34.3078C19.3363 34.1016 19.1856 34.1188 18.957 34.3686C17.5405 35.9125 15.9019 37.1748 14.0599 38.1768C11.0497 39.8132 7.8241 40.5243 4.41353 40.4939C3.94442 40.49 3.31411 40.2811 3.0485 40.5851C2.81593 40.8495 2.97847 41.4642 2.97318 41.9241C2.9679 42.4198 2.97583 42.9142 2.97054 43.4099C2.96129 44.2096 2.51069 44.7965 1.78259 44.963C1.11395 45.1163 0.441353 44.7502 0.104392 44.043C0.104392 44.043 0.104392 44.0417 0.10307 44.0417C0.0264283 43.8751 0 43.6874 0 43.5011V28.3768Z" fill="#131A22"/>
<path d="M46.399 33.5015C45.4898 34.6541 44.5556 35.7869 43.6346 36.9303C42.8364 37.919 42.1506 38.0182 41.1318 37.2872C40.1407 36.5761 39.151 35.8636 38.1309 35.13C39.5501 33.9932 40.9481 32.871 42.3501 31.7514C44.5635 29.9828 46.7782 28.2156 48.9916 26.4457C49.3074 26.1932 49.7567 26.1694 50.0883 26.4007C50.5455 26.7193 50.6367 27.2625 50.9988 27.6511C49.5888 29.6973 47.9358 31.5532 46.399 33.5015Z" fill="#131A22"/>
<path d="M17.4017 0C18.2038 0.0105746 18.8196 0.289478 19.3957 0.707173C23.0006 3.31777 26.6107 5.92175 30.2194 8.52837C36.0059 12.7093 41.7911 16.8915 47.5789 21.0685C47.9978 21.3712 48.3175 21.7175 48.3651 22.2594C48.4206 22.882 48.1431 23.3275 47.6714 23.7029C44.3176 26.3756 40.9678 29.0549 37.618 31.7316C36.2649 32.8128 34.9144 33.8967 33.5573 34.974C32.82 35.5596 32.2187 35.5715 31.4457 35.0189C23.1155 29.0694 14.784 23.1199 6.45644 17.1665C4.89981 16.0535 4.63024 14.2096 5.82084 12.7212C8.90106 8.86808 11.9945 5.02688 15.0826 1.18038C15.6997 0.412408 16.4979 0.0171836 17.4017 0ZM37.2877 20.8689C36.4803 20.8464 35.7918 21.4915 35.7628 22.2978C35.7337 23.1239 36.4037 23.8218 37.2322 23.8311C38.0422 23.8403 38.7175 23.186 38.732 22.3771C38.7492 21.5694 38.099 20.8913 37.2877 20.8689Z" fill="#131A22"/>
</svg>
