<svg width="52" height="45" viewBox="0 0 52 45" fill="none" xmlns="http://www.w3.org/2000/svg">
<path d="M36.8504 12.4122C37.1174 12.4122 37.3199 12.4122 37.5239 12.4122C40.6345 12.4122 43.7437 12.4122 46.8544 12.4122C47.0973 12.4122 47.3418 12.4359 47.5698 12.3186C47.9268 12.1343 48.0932 11.8402 48.0347 11.4509C47.9778 11.0632 47.7378 10.818 47.3403 10.7556C47.1753 10.7304 47.0044 10.7423 46.8349 10.7423C43.3492 10.7423 39.8651 10.7378 36.3795 10.7482C36.057 10.7497 35.832 10.6665 35.5981 10.4318C34.5692 9.39476 33.3138 8.84506 31.8349 8.83615C30.9545 8.83169 30.0726 8.82129 29.1937 8.84209C28.8683 8.84952 28.7843 8.74404 28.7873 8.43205C28.8023 6.76215 28.7738 5.09077 28.8068 3.42088C28.8398 1.68562 30.2001 0.243033 31.9369 0.0424671C32.1589 0.0172107 32.3854 0.00235398 32.6089 0.00235398C37.7983 0.000868313 42.9893 -0.00210303 48.1787 0.00235398C50.0985 0.00383965 51.5159 1.06907 51.9148 2.81176C51.9883 3.13266 51.9958 3.47436 51.9958 3.80567C52.0003 15.9629 52.0018 28.1187 51.9973 40.2759C51.9958 42.5817 50.4885 44.0599 48.1622 44.0614C42.9728 44.0629 37.7818 44.0629 32.5924 44.0614C30.3126 44.0599 28.7858 42.5341 28.7858 40.2952C28.7858 39.9416 28.8623 39.8302 29.2417 39.8257C30.4386 39.8124 31.6415 39.952 32.8308 39.7307C35.2471 39.279 37.1039 37.1471 37.1279 34.7076C37.1624 31.1999 37.1489 27.6923 37.1324 24.1846C37.1309 23.7448 37.2479 23.6364 37.6858 23.6394C40.7215 23.6587 43.7572 23.6512 46.7914 23.6468C47.0134 23.6468 47.2458 23.6438 47.4573 23.5844C47.8698 23.4685 48.0692 23.1639 48.0392 22.745C48.0093 22.326 47.7678 22.0601 47.3448 21.9947C47.1423 21.9635 46.9339 21.971 46.7284 21.971C43.7302 21.9695 40.732 21.9561 37.7353 21.9843C37.2194 21.9888 37.1129 21.8402 37.1324 21.3648C37.1714 20.4199 37.1669 19.4721 37.1324 18.5257C37.1174 18.1023 37.2419 18.0042 37.6603 18.0072C40.696 18.0265 43.7317 18.0176 46.7659 18.0161C46.9534 18.0161 47.1438 18.028 47.3268 17.9998C47.7498 17.9374 47.9973 17.6789 48.0377 17.2614C48.0782 16.8424 47.8758 16.5557 47.4783 16.3997C47.2593 16.3135 47.0344 16.3418 46.8124 16.3403C43.7587 16.3388 40.7035 16.3299 37.6498 16.3507C37.2194 16.3536 37.1294 16.2363 37.1309 15.8277C37.1354 14.7001 37.2674 13.5606 36.8504 12.4122ZM43.3312 33.8296C43.3342 32.2147 42.0549 30.9221 40.438 30.9087C38.7882 30.8954 37.4669 32.182 37.4624 33.8058C37.4579 35.4386 38.7627 36.7296 40.414 36.7237C42.0399 36.7177 43.3282 35.44 43.3312 33.8296ZM40.567 6.78444C41.8584 6.78444 43.1513 6.78444 44.4426 6.78444C45.341 6.78444 46.2394 6.79484 47.1378 6.77998C47.6913 6.77107 48.0213 6.46799 48.0452 5.99703C48.0707 5.5023 47.7363 5.15763 47.1753 5.10563C47.0643 5.09523 46.9504 5.10117 46.8379 5.10117C42.6443 5.10117 38.4508 5.10117 34.2572 5.10117C34.0322 5.10117 33.8072 5.09226 33.5928 5.1814C33.2928 5.3062 33.1128 5.52459 33.0768 5.84995C33.0393 6.17086 33.1518 6.43085 33.4113 6.62844C33.6363 6.80078 33.9032 6.78592 34.1642 6.78592C36.2985 6.78444 38.4328 6.78444 40.567 6.78444Z" fill="#131A22"/>
<path d="M18.1059 10.3358C22.8084 10.3358 27.511 10.3901 32.212 10.3131C34.5968 10.2739 36.2335 12.1278 36.2141 14.3321C36.1559 21.0293 36.1932 27.7266 36.1917 34.4223C36.1917 36.9119 34.6864 38.4337 32.2165 38.4352C22.7935 38.4383 13.3706 38.4383 3.94763 38.4352C1.51051 38.4337 0.00373334 36.9149 0.00224 34.457C-0.000746667 27.7417 -0.000746667 21.0248 0.00224 14.3094C0.00373334 11.8395 1.49707 10.3373 3.94315 10.3373C8.66507 10.3342 13.3855 10.3358 18.1059 10.3358ZM18.1044 13.7372C13.384 13.7372 8.66358 13.7448 3.94315 13.7267C3.49067 13.7251 3.35926 13.8142 3.36075 14.2989C3.38016 19.9393 3.37867 25.5797 3.36224 31.2186C3.36075 31.664 3.47424 31.7682 3.9088 31.7667C13.3691 31.7531 22.8279 31.7531 32.2881 31.7652C32.7093 31.7652 32.8422 31.6821 32.8407 31.2247C32.8228 25.5842 32.8228 19.9438 32.8407 14.3049C32.8422 13.8323 32.7302 13.7236 32.2657 13.7251C27.5453 13.7463 22.8249 13.7372 18.1044 13.7372ZM18.085 35.6739C18.5868 35.6739 19.0886 35.692 19.5903 35.6694C20.1294 35.6452 20.4998 35.2587 20.4788 34.7831C20.4594 34.3227 20.104 33.983 19.5799 33.9769C18.5958 33.9634 17.6101 33.9634 16.6245 33.9754C16.075 33.983 15.7047 34.3423 15.7091 34.8209C15.7136 35.2995 16.081 35.6497 16.635 35.6694C17.1188 35.689 17.6027 35.6739 18.085 35.6739Z" fill="#131A22"/>
<path d="M17.6579 44.9988C14.6404 44.9988 11.6215 44.9988 8.60403 44.9988C8.30379 44.9988 8.00054 45.0139 7.74534 44.826C7.44509 44.6065 7.37153 44.3158 7.46911 43.9962C7.5772 43.6397 7.86844 43.4655 8.26476 43.46C8.95832 43.4504 9.65188 43.4394 10.3454 43.4614C10.6667 43.471 10.7598 43.3832 10.7523 43.0911C10.7313 42.3039 10.7583 41.5153 10.7388 40.7281C10.7313 40.4359 10.7838 40.3111 11.1576 40.3125C15.4871 40.3249 19.8181 40.3235 24.1476 40.3153C24.4704 40.3139 24.565 40.4003 24.5575 40.691C24.538 41.4783 24.565 42.2668 24.544 43.0541C24.5349 43.3613 24.616 43.4778 24.9763 43.4627C25.5933 43.4353 26.2133 43.4504 26.8318 43.4573C27.5119 43.4641 27.8601 43.7316 27.8571 44.228C27.8556 44.7217 27.5029 44.9988 26.8258 44.9988C23.7693 45.0015 20.7128 44.9988 17.6579 44.9988Z" fill="#131A22"/>
</svg>
