<svg width="39" height="40" viewBox="0 0 39 40" fill="none" xmlns="http://www.w3.org/2000/svg">
<g clip-path="url(#clip0_38_139)">
<path d="M37.6323 40C37.87 39.8051 37.9385 39.555 37.9333 39.2496C37.9177 38.4033 37.9053 37.5571 37.9385 36.7118C37.953 36.3439 37.8264 36.2866 37.5026 36.2949C36.6611 36.3168 35.8185 36.3054 34.9769 36.3012C33.465 36.2939 32.4367 35.2694 32.4346 33.754C32.4305 30.0438 32.4305 26.3345 32.4346 22.6243C32.4367 21.1006 33.4516 20.0823 34.9676 20.074C35.8486 20.0688 36.7296 20.0636 37.6106 20.0792C37.8658 20.0834 37.9385 20.0115 37.9343 19.7551C37.9187 18.8442 37.9312 17.9333 37.927 17.0214C37.925 16.5305 37.7672 16.3752 37.2681 16.3742C33.408 16.3721 29.5468 16.3721 25.6866 16.3742C25.1958 16.3742 25.0443 16.5336 25.0443 17.036C25.0433 24.469 25.0453 31.901 25.0381 39.334C25.0381 39.6217 25.1356 39.828 25.3494 39.9979C29.443 40 33.5377 40 37.6323 40Z" fill="#22A77D"/>
<path d="M37.8388 0.00521851C32.885 0.00521851 28.9688 0.00521851 24.0149 0.00521851C23.5044 0.00521851 22.9949 0.0854686 22.5176 0.266813C22.5144 0.267855 22.5124 0.268898 22.5093 0.26994C21.0275 0.834817 20.0188 2.27619 19.9867 3.87494C19.9773 4.33039 19.9753 4.78583 19.9856 5.24128C20.0012 5.90517 20.5086 6.40855 21.1447 6.4096C21.7777 6.41064 22.2903 5.90621 22.3111 5.24545C22.3235 4.82961 22.31 4.41272 22.3152 3.99688C22.3277 3.03909 23.0063 2.3554 23.963 2.35227C25.918 2.34602 27.874 2.35749 29.829 2.34289C30.1237 2.34081 30.1569 2.4492 30.1548 2.70141C30.1434 4.02815 30.1569 5.35592 30.1434 6.68266C30.1403 6.99949 30.2368 7.06098 30.6446 7.0172C31.2226 6.95571 31.8058 6.96614 32.3848 7.02033C32.7459 7.05472 32.8289 6.99219 32.8258 6.70246C32.8134 5.36217 32.8289 4.02189 32.8134 2.68161C32.8103 2.40334 32.8881 2.34081 33.1568 2.34289C34.8534 2.3554 36.135 2.3085 37.8305 2.34394" fill="#22A77D"/>
<path d="M0.00518799 4.06773C0.207535 3.46533 0.334131 2.83792 0.679677 2.28555C1.44444 1.06408 2.51533 0.314734 3.93694 0.0844061C3.9909 0.0760684 4.03656 0.0687729 4.04694 0.00519814C2.77682 0.00519814 1.50774 0.0104092 0.23763 -1.29042e-05C0.0435843 -0.00105511 -0.0020752 0.0437599 -0.0010376 0.239695C0.0103765 1.51536 0.00518799 2.79102 0.00518799 4.06773Z" fill="#FCFCFC"/>
<path d="M13.8592 27.5279C13.8364 24.9411 11.734 22.8744 9.14399 22.8932C6.60583 22.9119 4.50869 25.0568 4.53463 27.6081C4.56161 30.2126 6.67847 32.2887 9.282 32.2637C11.8202 32.2397 13.882 30.1053 13.8592 27.5279Z" fill="#22A77D"/>
<path d="M8.77044 13.2871C8.75903 15.8874 10.8292 17.9781 13.4192 17.9812C15.9999 17.9844 18.0929 15.8864 18.0898 13.2986C18.0877 10.7316 16.0093 8.63366 13.4493 8.61386C10.88 8.59302 8.78186 10.6889 8.77044 13.2871Z" fill="#22A77D"/>
<path d="M0.00829983 4.68995C-0.0031147 7.29026 2.06705 9.38094 4.65709 9.38406C7.23779 9.38719 9.33078 7.28922 9.32766 4.70142C9.32559 2.13445 7.24712 0.0354441 4.68718 0.0156421C2.11789 -0.00415988 0.0197144 2.09172 0.00829983 4.68995Z" fill="#22A77D"/>
<path d="M37.9281 28.1615C37.9281 26.3669 37.9208 24.5722 37.9353 22.7775C37.9374 22.4898 37.8741 22.4012 37.5763 22.4096C36.7482 22.4325 35.9191 22.4263 35.0911 22.4117C34.8431 22.4075 34.7569 22.4659 34.758 22.7316C34.7663 26.3731 34.7652 30.0146 34.759 33.6561C34.759 33.8937 34.8285 33.9729 35.0672 33.9698C35.9088 33.9583 36.7503 33.9541 37.5908 33.9719C37.8669 33.9781 37.9353 33.8937 37.9333 33.6227C37.9229 31.803 37.9281 29.9823 37.9281 28.1615Z" fill="#22A77D"/>
<path d="M31.4893 14.0323C32.5374 14.0323 33.5864 14.025 34.6345 14.0375C34.8887 14.0406 34.9956 13.999 34.9915 13.7051C34.9738 12.47 34.9863 11.234 34.9832 9.99895C34.9821 9.52892 34.8223 9.36633 34.3554 9.36529C32.4398 9.36216 30.5243 9.36216 28.6087 9.36529C28.1397 9.36633 27.9934 9.52266 27.9923 10.0062C27.9903 11.2413 27.9986 12.4773 27.9851 13.7123C27.982 13.9677 28.0484 14.0406 28.3057 14.0375C29.3662 14.024 30.4278 14.0323 31.4893 14.0323Z" fill="#22A77D"/>
<path d="M37.8357 2.34302C38.4791 2.34302 39 1.81983 39 1.1747C39 0.52853 38.4791 0.00534058 37.8357 0.00534058C37.1934 0.00534058 36.6715 0.52853 36.6715 1.1747C36.6725 1.81983 37.1934 2.34302 37.8357 2.34302Z" fill="#22A77D"/>
</g>
<defs>
<clipPath id="clip0_38_139">
<rect width="39" height="40" fill="white" transform="matrix(-1 0 0 1 39 0)"/>
</clipPath>
</defs>
</svg>
