<svg width="40" height="40" viewBox="0 0 40 40" fill="none" xmlns="http://www.w3.org/2000/svg">
<g clip-path="url(#clip0_38_130)">
<path d="M32.6975 26.1661C32.7028 26.5579 32.562 26.864 32.3088 27.1171C30.7859 28.6431 29.2671 30.1724 27.7335 31.6878C27.1277 32.2862 26.3991 32.2343 25.7456 31.5808C20.2732 26.111 14.803 20.6391 9.33171 15.1683C8.98539 14.822 8.63376 14.482 8.29485 14.1283C7.74836 13.5575 7.74518 12.8172 8.30439 12.2539C9.8136 10.7331 11.3292 9.21872 12.849 7.70857C13.4558 7.10493 14.1887 7.13988 14.8369 7.78799C16.989 9.93779 19.14 12.0897 21.291 14.2406C24.9195 17.8687 28.548 21.499 32.1786 25.1251C32.4793 25.4248 32.7187 25.7436 32.6975 26.1661Z" fill="#22A77D"/>
<path d="M18.2398 25.9109C18.2758 25.9268 18.2885 25.9289 18.2959 25.9374C18.5819 26.2286 19.032 26.4859 19.1029 26.8238C19.1623 27.1033 18.7852 27.4825 18.5861 27.8086C17.0737 30.2804 15.3463 32.5774 13.1148 34.455C11.1152 36.1378 8.86888 37.3038 6.25185 37.6744C5.87269 37.7284 5.49036 37.7591 5.09426 37.8026C5.12815 37.9159 5.233 37.9307 5.31667 37.9709C7.509 38.9939 9.75746 38.9675 12.0017 38.2293C15.3431 37.129 17.796 34.9962 19.283 31.7768C19.7967 30.6637 20.2711 29.5359 20.7382 28.3106C21.0464 28.64 21.3112 28.9333 21.5897 29.214C21.6977 29.323 21.6744 29.4247 21.6299 29.537C20.8441 31.53 20.0561 33.5411 18.6581 35.19C15.9881 38.3416 12.5906 40.0932 8.40182 39.9968C3.61576 39.8867 -0.0593112 36.1759 -1.74897e-06 31.3902C0.0646032 26.1704 2.52701 22.3177 7.13408 19.8523C8.18153 19.2921 9.27769 18.8377 10.3855 18.4067C10.6079 18.3199 10.7403 18.3432 10.8992 18.5169C11.1301 18.77 11.3927 18.9934 11.6681 19.255C10.7678 19.6257 9.90892 19.9539 9.07011 20.3299C7.43698 21.0606 5.8441 21.8655 4.60707 23.2083C2.49947 25.4979 1.23597 28.1454 1.24867 31.3129C1.25397 32.5043 1.51345 33.6449 2.0377 34.7198C2.06948 34.7854 2.07901 34.8733 2.19763 34.9062C2.276 33.6576 2.49947 32.445 2.92946 31.278C3.82652 28.8412 5.36221 26.846 7.23787 25.0902C8.9642 23.4741 10.9013 22.145 12.9358 20.9515C13.137 20.834 13.2493 20.853 13.3986 21.0204C13.6094 21.2565 13.8498 21.4662 14.0775 21.6865C13.9992 21.8676 13.8318 21.9004 13.7037 21.9745C11.1894 23.436 8.82546 25.0944 6.87037 27.276C5.17899 29.1631 3.97056 31.296 3.58716 33.8387C3.54162 34.1394 3.50455 34.4412 3.48443 34.7441C3.46748 35.0057 3.48125 35.2705 3.48125 35.5606C3.63058 35.5161 3.70684 35.388 3.80004 35.2948C7.67528 31.4231 11.5505 27.5513 15.4152 23.669C15.663 23.4201 15.7933 23.3894 16.0464 23.6637C16.6141 24.2768 16.631 24.262 16.0443 24.8487C12.2739 28.6199 8.50349 32.391 4.73205 36.16C4.63143 36.2606 4.5107 36.339 4.42385 36.4703C5.42681 36.5529 6.38318 36.4142 7.32472 36.1621C10.0212 35.441 12.1563 33.8408 14.0246 31.8371C15.574 30.1755 16.8418 28.3085 17.9824 26.3504C18.0703 26.2021 18.1561 26.0549 18.2398 25.9109Z" fill="#22A77D"/>
<path d="M26.3313 17.4515C25.0614 16.1807 23.8106 14.93 22.5418 13.6613C23.2567 13.1508 23.961 12.6181 24.6145 12.0198C26.2074 10.5615 27.4804 8.84488 28.655 7.04667C29.8888 5.15739 31.2529 3.37719 33.0174 1.94117C34.0405 1.10878 35.1462 0.424659 36.4499 0.117545C38.8827 -0.455382 40.4491 1.11302 39.875 3.54875C39.5679 4.85239 38.8827 5.958 38.0491 6.97995C36.7232 8.60448 35.1123 9.90601 33.3701 11.0519C31.379 12.3619 29.4376 13.7343 27.8373 15.5283C27.293 16.1394 26.8047 16.7949 26.3313 17.4515ZM35.2097 6.75544C36.2963 6.75438 37.1743 5.8807 37.1796 4.79521C37.1849 3.71607 36.3069 2.83074 35.2203 2.81909C34.1231 2.80744 33.2334 3.69807 33.2377 4.80474C33.243 5.89023 34.1178 6.7565 35.2097 6.75544Z" fill="#22A77D"/>
<path d="M0.606865 3.23848C0.618515 1.77915 1.38001 0.676721 2.5376 0.219227C3.69413 -0.238266 4.97352 0.0381361 5.85363 0.942534C6.25186 1.35237 6.56111 1.82893 6.8566 2.31502C7.41157 3.22789 7.90193 4.17888 8.51303 5.0568C8.60517 5.18918 8.60623 5.2686 8.48761 5.38721C7.65092 6.2143 6.82059 7.04669 5.99132 7.88119C5.89812 7.97544 5.82822 8.0231 5.69583 7.92885C4.52023 7.09646 3.1953 6.50553 2.03135 5.65514C1.13324 4.99856 0.617456 4.14287 0.606865 3.23848Z" fill="#22A77D"/>
<path d="M37.007 39.389C35.9712 39.354 35.1885 38.977 34.5732 38.2526C34.1008 37.6967 33.7407 37.0665 33.3711 36.4417C32.9549 35.7385 32.5334 35.0385 32.0981 34.347C32.0028 34.1956 31.9953 34.1151 32.1256 33.9869C32.9538 33.1704 33.7725 32.3455 34.5954 31.5237C34.6759 31.4432 34.7405 31.3426 34.8877 31.4464C36.093 32.302 37.4645 32.894 38.6444 33.791C39.9269 34.7664 40.3463 36.2628 39.7003 37.6151C39.1464 38.7737 38.19 39.3275 37.007 39.389Z" fill="#22A77D"/>
<path d="M7.3745 11.3812C7.05253 11.0476 6.73162 10.7331 6.4319 10.4006C6.1237 10.0585 6.1057 9.57984 6.42872 9.25049C7.55666 8.09828 8.69625 6.95773 9.84643 5.82882C10.1843 5.49735 10.6757 5.51959 11.0273 5.8447C11.3376 6.1317 11.8153 6.41022 11.8714 6.75016C11.9297 7.10281 11.3842 7.36015 11.0983 7.65138C9.87503 8.89254 8.63694 10.1199 7.3745 11.3812Z" fill="#22A77D"/>
<path d="M33.2218 27.9961C33.5374 28.3233 33.8445 28.6315 34.139 28.9524C34.4758 29.3199 34.4948 29.8091 34.1474 30.1639C33.0364 31.2949 31.9149 32.4164 30.7837 33.5273C30.412 33.8927 29.9237 33.8747 29.5435 33.5125C29.2375 33.2213 28.9515 32.9099 28.6571 32.6081C28.9367 32.3148 29.212 32.0172 29.498 31.7302C30.7276 30.4943 31.9604 29.2616 33.2218 27.9961Z" fill="#22A77D"/>
<path d="M35.2097 6.75546C34.1178 6.75652 33.243 5.89024 33.2377 4.8037C33.2324 3.69809 34.1231 2.8064 35.2203 2.81804C36.3069 2.82969 37.1849 3.71609 37.1796 4.79416C37.1743 5.88071 36.2963 6.75334 35.2097 6.75546Z" fill="#FCFCFC"/>
</g>
<defs>
<clipPath id="clip0_38_130">
<rect width="40" height="40" fill="white"/>
</clipPath>
</defs>
</svg>
