<svg width="17" height="17" viewBox="0 0 17 17" fill="none" xmlns="http://www.w3.org/2000/svg">
<path d="M8.5 17C8.33181 17 8.19273 16.945 8.08276 16.835C7.97279 16.7251 7.91781 16.586 7.91781 16.4178V15.5445C6.14536 15.3634 4.67047 14.6842 3.49315 13.5069C2.31583 12.3295 1.63661 10.8546 1.45548 9.08219H0.582192C0.414003 9.08219 0.274924 9.02721 0.164954 8.91724C0.0549849 8.80727 0 8.66819 0 8.5C0 8.33181 0.0549849 8.19273 0.164954 8.08276C0.274924 7.97279 0.414003 7.91781 0.582192 7.91781H1.45548C1.63661 6.14536 2.31583 4.67047 3.49315 3.49315C4.67047 2.31583 6.14536 1.63661 7.91781 1.45548V0.582192C7.91781 0.414003 7.97279 0.274924 8.08276 0.164954C8.19273 0.0549849 8.33181 0 8.5 0C8.66819 0 8.80727 0.0549849 8.91724 0.164954C9.02721 0.274924 9.08219 0.414003 9.08219 0.582192V1.45548C10.8546 1.63661 12.3295 2.31583 13.5069 3.49315C14.6842 4.67047 15.3634 6.14536 15.5445 7.91781H16.4178C16.586 7.91781 16.7251 7.97279 16.835 8.08276C16.945 8.19273 17 8.33181 17 8.5C17 8.66819 16.945 8.80727 16.835 8.91724C16.7251 9.02721 16.586 9.08219 16.4178 9.08219H15.5445C15.3634 10.8546 14.6842 12.3295 13.5069 13.5069C12.3295 14.6842 10.8546 15.3634 9.08219 15.5445V16.4178C9.08219 16.586 9.02721 16.7251 8.91724 16.835C8.80727 16.945 8.66819 17 8.5 17ZM8.5 14.3995C10.1172 14.3995 11.5048 13.8206 12.6627 12.6627C13.8206 11.5048 14.3995 10.1172 14.3995 8.5C14.3995 6.8828 13.8206 5.49524 12.6627 4.33733C11.5048 3.17941 10.1172 2.60046 8.5 2.60046C6.8828 2.60046 5.49524 3.17941 4.33733 4.33733C3.17941 5.49524 2.60046 6.8828 2.60046 8.5C2.60046 10.1172 3.17941 11.5048 4.33733 12.6627C5.49524 13.8206 6.8828 14.3995 8.5 14.3995ZM8.5 11.411C7.68493 11.411 6.996 11.1296 6.43322 10.5668C5.87043 10.004 5.58904 9.31507 5.58904 8.5C5.58904 7.68493 5.87043 6.996 6.43322 6.43322C6.996 5.87043 7.68493 5.58904 8.5 5.58904C9.31507 5.58904 10.004 5.87043 10.5668 6.43322C11.1296 6.996 11.411 7.68493 11.411 8.5C11.411 9.31507 11.1296 10.004 10.5668 10.5668C10.004 11.1296 9.31507 11.411 8.5 11.411Z" fill="#2253FF"/>
</svg>
