<svg width="12" height="12" viewBox="0 0 12 12" fill="none" xmlns="http://www.w3.org/2000/svg">
<path d="M6 12C5.81429 12 5.66071 11.9393 5.53929 11.8179C5.41786 11.6964 5.35714 11.5429 5.35714 11.3571V6.64286H0.642857C0.457143 6.64286 0.303572 6.58214 0.182143 6.46071C0.0607144 6.33929 0 6.18571 0 6C0 5.81429 0.0607144 5.66071 0.182143 5.53929C0.303572 5.41786 0.457143 5.35714 0.642857 5.35714H5.35714V0.642857C5.35714 0.457143 5.41786 0.303572 5.53929 0.182143C5.66071 0.0607144 5.81429 0 6 0C6.18571 0 6.33929 0.0607144 6.46071 0.182143C6.58214 0.303572 6.64286 0.457143 6.64286 0.642857V5.35714H11.3571C11.5429 5.35714 11.6964 5.41786 11.8179 5.53929C11.9393 5.66071 12 5.81429 12 6C12 6.18571 11.9393 6.33929 11.8179 6.46071C11.6964 6.58214 11.5429 6.64286 11.3571 6.64286H6.64286V11.3571C6.64286 11.5429 6.58214 11.6964 6.46071 11.8179C6.33929 11.9393 6.18571 12 6 12Z" fill="white"/>
</svg>
