<svg width="29" height="29" viewBox="0 0 29 29" fill="none" xmlns="http://www.w3.org/2000/svg">
<path d="M1.19625 29C0.857917 29 0.573958 28.8852 0.344375 28.6556C0.114792 28.426 0 28.1421 0 27.8037V17.0013C0 16.6629 0.114792 16.379 0.344375 16.1494C0.573958 15.9198 0.857917 15.805 1.19625 15.805H6.0175V8.3375C6.0175 5.99333 6.84521 4.01771 8.50063 2.41062C10.156 0.803542 12.1558 0 14.5 0H20.7713C23.0671 0 25.0125 0.815625 26.6075 2.44688C28.2025 4.07812 29 6.04167 29 8.3375V27.9125C29 28.2267 28.8973 28.4865 28.6919 28.6919C28.4865 28.8973 28.2267 29 27.9125 29C27.5983 29 27.3385 28.8973 27.1331 28.6919C26.9277 28.4865 26.825 28.2267 26.825 27.9125V24.8313H19.7925V27.8037C19.7925 28.1663 19.6475 28.4563 19.3575 28.6737C19.0675 28.8913 18.7292 29 18.3425 29H1.19625ZM19.7925 22.6562H26.825V8.3375C26.825 6.64583 26.239 5.19583 25.0669 3.9875C23.8948 2.77917 22.4629 2.175 20.7713 2.175H14.5C12.76 2.175 11.2738 2.76708 10.0413 3.95125C8.80875 5.13542 8.1925 6.5975 8.1925 8.3375V15.805H18.3425C18.7292 15.805 19.0675 15.9138 19.3575 16.1313C19.6475 16.3488 19.7925 16.6388 19.7925 17.0013V22.6562ZM12.6875 11.0563C12.3733 11.0563 12.1135 10.9535 11.9081 10.7481C11.7027 10.5427 11.6 10.2829 11.6 9.96875C11.6 9.65458 11.7027 9.39479 11.9081 9.18937C12.1135 8.98396 12.3733 8.88125 12.6875 8.88125H22.33C22.6442 8.88125 22.904 8.98396 23.1094 9.18937C23.3148 9.39479 23.4175 9.65458 23.4175 9.96875C23.4175 10.2829 23.3148 10.5427 23.1094 10.7481C22.904 10.9535 22.6442 11.0563 22.33 11.0563H12.6875ZM9.89625 22.4025L17.6175 17.98H2.175L9.89625 22.4025ZM2.175 26.825H17.6175V19.9737L10.9838 23.78C10.8146 23.8767 10.6394 23.9492 10.4581 23.9975C10.2769 24.0458 10.0896 24.07 9.89625 24.07C9.70292 24.07 9.51562 24.0458 9.33438 23.9975C9.15313 23.9492 8.97792 23.8767 8.80875 23.78L2.175 19.9737V26.825ZM2.175 17.98V20.2275V19.9737V26.825V19.9737V20.2275V18.705C2.175 18.56 2.175 18.56 2.175 18.705V17.98Z" fill="white"/>
</svg>
