<svg width="233" height="35" viewBox="0 0 233 35" fill="none" xmlns="http://www.w3.org/2000/svg">
<path d="M199.577 9.24536C192.905 9.24536 187.497 14.6381 187.497 21.2901C187.497 25.334 189.497 28.9089 192.565 31.0929C193.151 30.1656 194.184 29.5465 195.36 29.5465C197.183 29.5465 198.666 31.0244 198.666 32.8422C198.666 32.995 198.652 33.1451 198.631 33.2927C198.943 33.3164 199.26 33.3322 199.577 33.3322C199.894 33.3322 200.211 33.3164 200.523 33.2927C200.502 33.1451 200.489 32.995 200.489 32.8422C200.489 31.0244 201.971 29.5465 203.794 29.5465C204.973 29.5465 206.006 30.1656 206.59 31.0929C209.658 28.9089 211.658 25.334 211.658 21.2901C211.658 14.6381 206.246 9.24536 199.577 9.24536ZM199.625 28.6349C195.572 28.6349 192.284 25.3577 192.284 21.3164C192.284 17.2752 195.572 13.9979 199.625 13.9979C203.678 13.9979 206.965 17.2752 206.965 21.3164C206.965 25.3577 203.678 28.6349 199.625 28.6349Z" fill="white"/>
<path d="M199.627 8.0125C200.446 8.0125 201.11 7.35081 201.11 6.53457C201.11 5.71833 200.446 5.05664 199.627 5.05664C198.809 5.05664 198.145 5.71833 198.145 6.53457C198.145 7.35081 198.809 8.0125 199.627 8.0125Z" fill="white"/>
<path d="M206.303 9.2419C208.863 9.2419 210.938 7.17303 210.938 4.62095C210.938 2.06887 208.863 0 206.303 0C203.744 0 201.669 2.06887 201.669 4.62095C201.669 7.17303 203.744 9.2419 206.303 9.2419Z" fill="white"/>
<path d="M197.524 32.8424C197.524 32.9505 197.516 33.0506 197.5 33.1533C197.35 34.1992 196.449 35.0001 195.36 35.0001C194.163 35.0001 193.193 34.0332 193.193 32.8424C193.193 32.4262 193.315 32.0389 193.516 31.7096C193.899 31.0958 194.578 30.6848 195.357 30.6848C196.557 30.6822 197.524 31.649 197.524 32.8424Z" fill="#FCBA00"/>
<path d="M205.958 32.8424C205.958 34.0358 204.989 35 203.792 35C202.703 35 201.802 34.1965 201.651 33.1533C201.636 33.0506 201.628 32.9478 201.628 32.8424C201.628 31.649 202.597 30.6848 203.792 30.6848C204.571 30.6848 205.25 31.0958 205.633 31.7096C205.837 32.0389 205.958 32.4262 205.958 32.8424Z" fill="#FCBA00"/>
<path d="M0.708142 33.1426C0.504684 33.1426 0.338217 33.0689 0.203459 32.924C0.0660581 32.7791 0 32.6184 0 32.4366C0 32.3259 0.0105693 32.2232 0.0343502 32.1336L8.0538 10.5364C8.1225 10.2914 8.25726 10.078 8.45807 9.89884C8.66153 9.7197 8.94162 9.63013 9.30098 9.63013H13.6132C13.9726 9.63013 14.2527 9.7197 14.4561 9.89884C14.6596 10.078 14.7944 10.2914 14.8604 10.5364L22.8799 32.1336C22.901 32.2232 22.9142 32.3233 22.9142 32.4366C22.9142 32.6157 22.8455 32.7791 22.7108 32.924C22.576 33.0689 22.4069 33.1426 22.2061 33.1426H18.6971C18.3615 33.1426 18.1131 33.0636 17.9546 32.9082C17.796 32.7527 17.6956 32.6052 17.6507 32.4708L16.2027 28.7088H6.70357L5.25558 32.4708C5.21066 32.6052 5.11025 32.7501 4.95171 32.9082C4.79317 33.0662 4.54744 33.1426 4.20922 33.1426H0.708142ZM7.95075 24.3752H14.9238L11.4545 14.7015L7.95075 24.3752Z" fill="white"/>
<path d="M26.6478 33.1427C26.3994 33.1427 26.1986 33.0636 26.0427 32.9082C25.8841 32.7528 25.8075 32.5499 25.8075 32.3049V10.4706C25.8075 10.2256 25.8868 10.0227 26.0427 9.86728C26.1986 9.71185 26.402 9.63281 26.6478 9.63281H29.7128C30.0484 9.63281 30.2968 9.71185 30.4553 9.86728C30.6112 10.0253 30.7143 10.1465 30.7592 10.2361L39.7537 24.2409V10.4706C39.7537 10.2256 39.8329 10.0227 39.9888 9.86728C40.1447 9.71185 40.3376 9.63281 40.5622 9.63281H43.9999C44.2456 9.63281 44.4491 9.71185 44.605 9.86728C44.7609 10.0253 44.8401 10.2256 44.8401 10.4706V32.3049C44.8401 32.5289 44.7609 32.7238 44.605 32.8924C44.4464 33.061 44.2456 33.1453 43.9999 33.1453H40.9004C40.5649 33.1453 40.3218 33.061 40.1764 32.8924C40.0311 32.7238 39.9228 32.6079 39.8567 32.5394L30.894 18.9693V32.3049C30.894 32.5526 30.8147 32.7528 30.6588 32.9082C30.5003 33.0663 30.2994 33.1427 30.0537 33.1427H26.6478Z" fill="white"/>
<path d="M56.8022 33.1426C56.5538 33.1426 56.353 33.0636 56.1971 32.9082C56.0385 32.7527 55.9619 32.5499 55.9619 32.3049V24.9126L48.0772 10.705C48.0534 10.6391 48.0323 10.5759 48.0112 10.5206C47.9874 10.4652 47.9768 10.402 47.9768 10.3362C47.9768 10.157 48.0481 9.99632 48.1961 9.84879C48.3414 9.70389 48.5053 9.63013 48.6849 9.63013H52.2574C52.5718 9.63013 52.8175 9.70916 52.9999 9.86459C53.1795 10.0227 53.3037 10.1676 53.3698 10.3019L58.6597 19.5383L63.9444 10.3019C64.0104 10.1676 64.1346 10.0227 64.3143 9.86459C64.494 9.70916 64.7397 9.63013 65.0568 9.63013H68.6292C68.8089 9.63013 68.9701 9.70389 69.118 9.84879C69.2634 9.99368 69.3373 10.157 69.3373 10.3362C69.3373 10.402 69.3268 10.4652 69.303 10.5206C69.2792 10.5759 69.2581 10.6391 69.2343 10.705L61.3496 24.9126V32.3022C61.3496 32.5499 61.2703 32.7501 61.1144 32.9055C60.9559 33.0636 60.7551 33.14 60.5093 33.14H56.8022V33.1426Z" fill="white"/>
<path d="M78.4979 33.1427C78.2495 33.1427 78.0487 33.0636 77.8902 32.9082C77.7316 32.7528 77.655 32.5499 77.655 32.3049V14.2984H71.5222C71.2976 14.2984 71.1073 14.2194 70.9488 14.064C70.7903 13.9085 70.7136 13.7162 70.7136 13.4923V10.4706C70.7136 10.2256 70.7929 10.0227 70.9488 9.86728C71.1047 9.71185 71.2976 9.63281 71.5222 9.63281H89.1755C89.4213 9.63281 89.6247 9.71185 89.7833 9.86728C89.9392 10.0253 90.0184 10.2256 90.0184 10.4706V13.4923C90.0184 13.7162 89.9392 13.9059 89.7833 14.064C89.6247 14.222 89.4239 14.2984 89.1755 14.2984H83.0771V32.3023C83.0771 32.5499 82.9978 32.7501 82.8419 32.9056C82.6833 33.0636 82.4825 33.14 82.2368 33.14H78.4979V33.1427Z" fill="white"/>
<path d="M100.229 33.1426C99.9803 33.1426 99.7795 33.0636 99.6236 32.9082C99.465 32.7527 99.3884 32.5499 99.3884 32.3049V24.9126L91.5037 10.705C91.4799 10.6391 91.4588 10.5759 91.4377 10.5206C91.4139 10.4652 91.4033 10.402 91.4033 10.3362C91.4033 10.157 91.4747 9.99632 91.6226 9.84879C91.768 9.70389 91.9318 9.63013 92.1115 9.63013H95.6839C95.9983 9.63013 96.244 9.70916 96.4264 9.86459C96.606 10.0227 96.7302 10.1676 96.7963 10.3019L102.086 19.5383L107.376 10.3019C107.442 10.1676 107.566 10.0227 107.746 9.86459C107.926 9.70916 108.171 9.63013 108.489 9.63013H112.061C112.241 9.63013 112.402 9.70389 112.55 9.84879C112.695 9.99368 112.769 10.157 112.769 10.3362C112.769 10.402 112.759 10.4652 112.735 10.5206C112.711 10.5759 112.69 10.6391 112.666 10.705L104.781 24.9126V32.3022C104.781 32.5499 104.702 32.7501 104.546 32.9055C104.388 33.0636 104.187 33.14 103.941 33.14H100.229V33.1426Z" fill="white"/>
<path d="M116.735 33.1427C116.511 33.1427 116.315 33.0636 116.146 32.9082C115.977 32.7528 115.892 32.5499 115.892 32.3049V10.4706C115.892 10.2256 115.977 10.0227 116.146 9.86728C116.315 9.71185 116.511 9.63281 116.735 9.63281H119.869C120.204 9.63281 120.458 9.72238 120.627 9.90153C120.796 10.0807 120.913 10.215 120.981 10.3046L127.18 21.6907L133.448 10.3046C133.493 10.215 133.598 10.0807 133.768 9.90153C133.937 9.72238 134.188 9.63281 134.526 9.63281H137.66C137.905 9.63281 138.109 9.71185 138.265 9.86728C138.421 10.0253 138.5 10.2256 138.5 10.4706V32.3049C138.5 32.5526 138.421 32.7528 138.265 32.9082C138.106 33.0663 137.905 33.1427 137.66 33.1427H134.222C133.997 33.1427 133.807 33.0636 133.649 32.9082C133.49 32.7528 133.413 32.5499 133.413 32.3049V18.7322L129.136 26.7278C129.022 26.928 128.877 27.1098 128.697 27.2652C128.517 27.4233 128.282 27.4997 127.989 27.4997H126.406C126.113 27.4997 125.878 27.4206 125.698 27.2652C125.518 27.1098 125.373 26.928 125.259 26.7278L120.981 18.7322V32.3023C120.981 32.5499 120.902 32.7501 120.746 32.9056C120.588 33.0636 120.397 33.14 120.173 33.14H116.735V33.1427Z" fill="white"/>
<path d="M151.976 33.4799C149.82 33.4799 148.018 33.1664 146.57 32.5394C145.122 31.9124 144.025 31.0957 143.285 30.0867C142.543 29.0777 142.152 28.0029 142.107 26.8621C142.107 26.683 142.173 26.5223 142.31 26.3748C142.445 26.2299 142.614 26.1561 142.815 26.1561H146.419C146.71 26.1561 146.934 26.2193 147.093 26.3405C147.249 26.4643 147.397 26.6145 147.532 26.7936C147.687 27.1756 147.941 27.5445 148.29 27.9028C148.639 28.261 149.114 28.5587 149.722 28.7932C150.33 29.0277 151.08 29.1462 151.979 29.1462C153.437 29.1462 154.534 28.9118 155.263 28.4402C155.992 27.9686 156.357 27.3311 156.357 26.5249C156.357 25.9427 156.159 25.4738 155.768 25.1155C155.374 24.7572 154.758 24.4332 153.915 24.1408C153.072 23.851 151.955 23.5375 150.562 23.2003C148.876 22.842 147.447 22.3783 146.266 21.8066C145.087 21.235 144.2 20.4973 143.605 19.5884C143.01 18.6822 142.712 17.5573 142.712 16.2137C142.712 14.8701 143.082 13.6767 143.824 12.6361C144.564 11.5955 145.611 10.7788 146.958 10.1834C148.306 9.59066 149.912 9.29297 151.775 9.29297C153.279 9.29297 154.61 9.49319 155.768 9.89626C156.925 10.2993 157.889 10.8262 158.666 11.4743C159.44 12.125 160.03 12.8179 160.434 13.5582C160.838 14.2958 161.052 15.015 161.073 15.7079C161.073 15.887 161.005 16.0503 160.87 16.1952C160.735 16.3401 160.566 16.4139 160.365 16.4139H156.592C156.367 16.4139 156.164 16.3691 155.987 16.2795C155.807 16.19 155.662 16.0345 155.548 15.808C155.414 15.2258 155.015 14.7173 154.351 14.28C153.688 13.8427 152.829 13.624 151.775 13.624C150.673 13.624 149.804 13.8242 149.164 14.2273C148.525 14.6304 148.205 15.2468 148.205 16.0741C148.205 16.6115 148.369 17.0646 148.694 17.4334C149.019 17.8023 149.569 18.1289 150.346 18.4082C151.12 18.6874 152.148 18.9957 153.429 19.3329C155.406 19.7359 157.012 20.2181 158.246 20.7766C159.48 21.3377 160.392 22.0595 160.976 22.9421C161.56 23.8273 161.853 24.9416 161.853 26.2852C161.853 27.7868 161.433 29.0725 160.59 30.1473C159.747 31.2222 158.59 32.0441 157.12 32.6158C155.643 33.1927 153.929 33.4799 151.976 33.4799Z" fill="#FCBA00"/>
<path d="M166.294 33.1427C166.046 33.1427 165.845 33.0636 165.689 32.9082C165.531 32.7528 165.454 32.5499 165.454 32.3049V10.4706C165.454 10.2256 165.533 10.0227 165.689 9.86728C165.845 9.71185 166.049 9.63281 166.294 9.63281H169.967C170.213 9.63281 170.417 9.71185 170.575 9.86728C170.731 10.0253 170.81 10.2256 170.81 10.4706V18.8666H179.939V10.4706C179.939 10.2256 180.019 10.0227 180.175 9.86728C180.331 9.71185 180.534 9.63281 180.78 9.63281H184.453C184.698 9.63281 184.902 9.71185 185.058 9.86728C185.214 10.0253 185.293 10.2256 185.293 10.4706V32.3049C185.293 32.5526 185.214 32.7528 185.058 32.9082C184.899 33.0663 184.698 33.1427 184.453 33.1427H180.78C180.531 33.1427 180.331 33.0636 180.175 32.9082C180.016 32.7528 179.939 32.5499 179.939 32.3049V23.6376H170.81V32.3049C170.81 32.5526 170.731 32.7528 170.575 32.9082C170.417 33.0663 170.216 33.1427 169.967 33.1427H166.294Z" fill="#FCBA00"/>
<path d="M214.808 33.1427C214.559 33.1427 214.358 33.0636 214.203 32.9082C214.044 32.7528 213.967 32.5499 213.967 32.3049V10.4706C213.967 10.2256 214.047 10.0227 214.203 9.86728C214.358 9.71185 214.562 9.63281 214.808 9.63281H224.006C225.826 9.63281 227.404 9.91207 228.738 10.4732C230.075 11.0343 231.119 11.8774 231.872 13.0102C232.625 14.1404 233 15.5472 233 17.2253C233 18.9272 232.625 20.3313 231.872 21.4404C231.119 22.5495 230.075 23.3715 228.738 23.9089C227.401 24.4463 225.824 24.7151 224.006 24.7151H219.492V32.3076C219.492 32.5552 219.413 32.7554 219.257 32.9108C219.099 33.0689 218.898 33.1453 218.652 33.1453H214.808V33.1427ZM219.389 20.5474H223.836C224.983 20.5474 225.874 20.2681 226.516 19.707C227.155 19.1485 227.475 18.3081 227.475 17.1884C227.475 16.2031 227.19 15.397 226.616 14.77C226.043 14.143 225.118 13.8295 223.836 13.8295H219.389V20.5474Z" fill="#FCBA00"/>
</svg>
