<svg width="173" height="35" viewBox="0 0 173 35" fill="none" xmlns="http://www.w3.org/2000/svg">
<path d="M43.1361 6.95047H46.7738V13.3502C47.7478 12.6546 48.9206 12.2969 50.2723 12.2969C51.5644 12.2969 52.7571 12.6149 53.8703 13.2509C54.9636 13.8869 55.8382 14.7614 56.4942 15.8744C57.1502 16.9874 57.4682 18.1799 57.4682 19.4717C57.4682 20.7636 57.1502 21.976 56.4942 23.0691C55.8382 24.1821 54.9636 25.0367 53.8703 25.6926C52.777 26.3286 51.5843 26.6466 50.2723 26.6466C48.9604 26.6466 47.7677 26.3286 46.6744 25.6926C45.5811 25.0566 44.7065 24.1821 44.0704 23.0691C43.4343 21.9561 43.1162 20.7636 43.1162 19.4717V6.95047H43.1361ZM47.7478 16.8681C47.0521 17.5637 46.7142 18.4382 46.7142 19.4717C46.7142 20.5052 47.0521 21.3797 47.7478 22.0754C48.4436 22.771 49.2784 23.1089 50.3121 23.1089C51.3259 23.1089 52.1806 22.771 52.8366 22.0754C53.4926 21.3797 53.8305 20.5052 53.8305 19.4717C53.8305 18.4382 53.4926 17.5637 52.8366 16.8681C52.1806 16.1725 51.3259 15.8346 50.3121 15.8346C49.2784 15.8346 48.4237 16.1725 47.7478 16.8681Z" fill="#22A77D"/>
<path d="M62.4377 25.6926C61.3444 25.0566 60.4697 24.1821 59.8138 23.0691C59.1578 21.9561 58.8397 20.7636 58.8397 19.4717C58.8397 18.1798 59.1578 16.9674 59.8138 15.8743C60.4697 14.7812 61.3444 13.9067 62.4377 13.2508C63.531 12.6148 64.7237 12.2968 66.0356 12.2968C67.3476 12.2968 68.5403 12.6148 69.6336 13.2508C70.7269 13.8868 71.6015 14.7613 72.2376 15.8743C72.8737 16.9873 73.1917 18.1798 73.1917 19.4717V26.428H69.5739V24.9572C69.3751 25.4143 68.9179 25.8118 68.2421 26.1497C67.5662 26.4876 66.8307 26.6466 66.0356 26.6466C64.7237 26.6466 63.531 26.3286 62.4377 25.6926ZM68.5999 22.0753C69.2758 21.3797 69.5938 20.5052 69.5938 19.4717C69.5938 18.4382 69.2559 17.5637 68.5999 16.8681C67.9439 16.1724 67.0892 15.8346 66.0754 15.8346C65.0616 15.8346 64.2068 16.1724 63.5111 16.8681C62.8154 17.5637 62.4774 18.4382 62.4774 19.4717C62.4774 20.5052 62.8154 21.3797 63.5111 22.0753C64.2068 22.771 65.0417 23.1088 66.0754 23.1088C67.0693 23.1088 67.924 22.771 68.5999 22.0753Z" fill="#22A77D"/>
<path d="M87.1065 26.428H83.4887V19.1139C83.4887 17.9811 83.2899 17.1463 82.8923 16.6296C82.4948 16.1128 81.8587 15.8346 80.984 15.8346C80.1094 15.8346 79.4733 16.0929 79.0757 16.6296C78.6782 17.1662 78.4794 17.9811 78.4794 19.1139V26.428H74.8616V19.1139C74.8616 16.8482 75.4182 15.1588 76.5313 14.0061C77.6445 12.8732 79.1354 12.2968 80.984 12.2968C82.8327 12.2968 84.3236 12.8732 85.4367 14.0061C86.5499 15.1389 87.1065 16.8482 87.1065 19.1139V26.428Z" fill="#22A77D"/>
<path d="M91.8573 30.8204C90.6646 30.0254 89.79 28.9919 89.2334 27.6801H93.6265C93.9843 27.9584 94.3222 28.1571 94.6601 28.2764C94.9981 28.3956 95.3758 28.4553 95.7932 28.4553C96.7672 28.4553 97.5822 28.2168 98.2581 27.7398C98.9339 27.2628 99.2719 26.6069 99.2719 25.7721V25.7523C98.1985 26.3684 97.0455 26.6665 95.7932 26.6665C94.5011 26.6665 93.2886 26.3485 92.1953 25.7125C91.0821 25.0765 90.2273 24.202 89.5713 23.089C88.9154 21.976 88.6172 20.7835 88.6172 19.4916C88.6172 18.1998 88.9352 16.9874 89.5713 15.8942C90.2074 14.8011 91.0821 13.9266 92.1953 13.2707C93.3084 12.6347 94.5011 12.3167 95.7932 12.3167C97.0853 12.3167 98.2978 12.6347 99.3911 13.2707C100.504 13.9067 101.359 14.7812 102.015 15.8942C102.651 17.0072 102.969 18.1998 102.969 19.4916V24.838C102.969 26.1299 102.651 27.3423 102.015 28.4354C101.379 29.5484 100.504 30.403 99.3911 31.0589C98.278 31.6949 97.0853 32.0129 95.7932 32.0129C94.362 31.993 93.05 31.5955 91.8573 30.8204ZM98.3774 22.0754C99.0532 21.3798 99.3713 20.5053 99.3713 19.4718C99.3713 18.4383 99.0333 17.5637 98.3774 16.8681C97.7214 16.1725 96.8666 15.8346 95.8528 15.8346C94.839 15.8346 93.9843 16.1725 93.2885 16.8681C92.5928 17.5637 92.2549 18.4383 92.2549 19.4718C92.2549 20.5053 92.5928 21.3798 93.2885 22.0754C93.9843 22.771 94.8192 23.1089 95.8528 23.1089C96.8467 23.1089 97.7015 22.771 98.3774 22.0754Z" fill="#22A77D"/>
<path d="M104.659 26.4279V6.95041H108.277V26.4279H104.659Z" fill="#22A77D"/>
<path d="M113.385 25.6926C112.292 25.0566 111.417 24.1821 110.762 23.0691C110.106 21.9561 109.787 20.7636 109.787 19.4717C109.787 18.1798 110.106 16.9674 110.762 15.8743C111.417 14.7812 112.292 13.9067 113.385 13.2508C114.479 12.6148 115.671 12.2968 116.983 12.2968C118.295 12.2968 119.488 12.6148 120.581 13.2508C121.675 13.8868 122.549 14.7613 123.185 15.8743C123.821 16.9873 124.14 18.1798 124.14 19.4717V26.428H120.522V24.9572C120.323 25.4143 119.866 25.8118 119.19 26.1497C118.514 26.4876 117.778 26.6466 116.983 26.6466C115.691 26.6466 114.499 26.3286 113.385 25.6926ZM119.548 22.0753C120.224 21.3797 120.542 20.5052 120.542 19.4717C120.542 18.4382 120.204 17.5637 119.548 16.8681C118.892 16.1724 118.037 15.8346 117.023 15.8346C116.009 15.8346 115.155 16.1724 114.459 16.8681C113.763 17.5637 113.425 18.4382 113.425 19.4717C113.425 20.5052 113.763 21.3797 114.459 22.0753C115.155 22.771 115.989 23.1088 117.023 23.1088C118.037 23.1088 118.872 22.771 119.548 22.0753Z" fill="#22A77D"/>
<path d="M129.248 25.6926C128.135 25.0566 127.28 24.1821 126.624 23.0691C125.968 21.9561 125.67 20.7636 125.67 19.4717C125.67 18.1798 125.988 16.9674 126.624 15.8743C127.26 14.7812 128.135 13.9067 129.248 13.2508C130.361 12.6148 131.554 12.2968 132.846 12.2968C134.476 12.2968 135.927 12.7738 137.199 13.7477C138.472 14.7216 139.326 15.9737 139.744 17.4842H135.907C135.589 16.9674 135.172 16.5501 134.635 16.2519C134.098 15.9538 133.522 15.8147 132.866 15.8147C131.852 15.8147 130.997 16.1526 130.302 16.8482C129.606 17.5438 129.268 18.4183 129.268 19.4518C129.268 20.4853 129.606 21.3598 130.302 22.0555C130.997 22.7511 131.832 23.089 132.866 23.089C133.482 23.089 134.039 22.9498 134.536 22.6915C135.033 22.4132 135.45 22.0555 135.788 21.5586H139.704C139.267 23.0492 138.412 24.2616 137.14 25.1957C135.868 26.1298 134.436 26.6068 132.826 26.6068C131.554 26.6466 130.341 26.3286 129.248 25.6926Z" fill="#22A77D"/>
<path d="M144.733 25.6926C143.64 25.0566 142.765 24.1821 142.109 23.0691C141.453 21.9561 141.135 20.7636 141.135 19.4717C141.135 18.1798 141.453 16.9674 142.109 15.8743C142.765 14.7812 143.64 13.9067 144.733 13.2508C145.826 12.6148 147.019 12.2968 148.331 12.2968C149.643 12.2968 150.836 12.6148 151.929 13.2508C153.022 13.8868 153.897 14.7613 154.533 15.8743C155.169 16.9873 155.487 18.1798 155.487 19.4717V26.428H151.869V24.9572C151.671 25.4143 151.213 25.8118 150.538 26.1497C149.862 26.4876 149.126 26.6466 148.331 26.6466C147.019 26.6466 145.826 26.3286 144.733 25.6926ZM150.876 22.0753C151.551 21.3797 151.869 20.5052 151.869 19.4717C151.869 18.4382 151.532 17.5637 150.876 16.8681C150.22 16.1724 149.365 15.8346 148.351 15.8346C147.337 15.8346 146.482 16.1724 145.787 16.8681C145.091 17.5637 144.753 18.4382 144.753 19.4717C144.753 20.5052 145.091 21.3797 145.787 22.0753C146.482 22.771 147.317 23.1088 148.351 23.1088C149.365 23.1088 150.22 22.771 150.876 22.0753Z" fill="#22A77D"/>
<path d="M157.416 19.114C157.416 16.9079 157.972 15.2384 159.065 14.1254C160.159 13.0124 161.59 12.4559 163.379 12.4559H163.538V15.9936H163.399C162.604 15.9936 162.007 16.252 161.61 16.7489C161.212 17.2458 161.033 18.0408 161.033 19.114V26.428H157.416V19.114Z" fill="#22A77D"/>
<path d="M170.495 16.0532V19.8692C170.495 20.9822 170.694 21.7772 171.072 22.2542C171.449 22.7312 172.105 22.9697 173 22.9697V26.5075C171.131 26.5075 169.64 25.951 168.527 24.8579C167.414 23.7647 166.877 22.0952 166.877 19.8494V16.0532H164.81V12.5155H166.877V6.97034H170.495V12.5155H173V16.0532H170.495Z" fill="#22A77D"/>
<path d="M31.8286 23.2876C31.8286 23.6255 31.8087 23.9634 31.8087 24.3012C31.3714 24.3807 31.2521 24.5199 31.2123 25.0167C31.0334 27.0837 30.616 29.111 29.9203 31.0587C29.7612 31.5159 29.5625 31.9332 29.2245 32.291C28.8468 32.291 28.4692 32.4301 28.0915 32.4301C26.6006 32.4102 25.1495 32.132 23.7183 31.7742C20.8956 31.0587 18.2319 29.9259 15.6875 28.4949C15.4887 28.3756 15.3098 28.2166 15.0514 28.1967C14.8725 27.7992 14.6538 27.4017 14.2563 27.1632C13.9979 27.0042 13.7196 26.9446 13.481 27.203C12.9443 26.7657 12.3877 26.3682 11.8908 25.8912C10.9764 25.0167 10.2608 23.9832 9.74394 22.8106C8.92894 20.9225 8.65064 18.9747 9.10784 16.9475C9.20723 16.5301 9.40601 16.1326 9.42589 15.6953C9.72406 15.2978 10.1415 14.9997 10.5589 14.7016C12.8449 13.052 15.1508 11.4222 17.4368 9.77259C18.9873 8.65959 20.6769 8.16271 22.5852 8.40121C25.8055 8.81859 28.1113 10.5676 29.5823 13.3898C30.5365 15.1985 30.7949 17.2257 31.0732 19.2331C31.2322 20.3461 31.2919 21.4591 31.3117 22.5721C31.2919 22.9299 31.431 23.2081 31.8286 23.2876ZM24.9308 18.1002C24.7122 18.1201 24.5929 18.2791 24.573 18.5375C24.5333 19.0741 25.07 19.8294 25.5868 20.0082C25.9645 20.1275 26.203 19.9685 26.203 19.571C26.203 19.4517 26.1633 19.3325 26.1434 19.2132C25.9645 18.6567 25.3682 18.1002 24.9308 18.1002ZM19.9613 21.1212C19.9812 20.5846 19.4047 19.8095 18.868 19.6902C18.55 19.6107 18.3711 19.7697 18.3512 20.0877C18.3114 20.6442 18.8084 21.3796 19.3451 21.5386C19.7228 21.6777 19.9414 21.5187 19.9613 21.1212ZM28.0716 24.3807C28.0716 24.9174 28.5685 25.613 29.0655 25.772C29.4631 25.9111 29.6817 25.7322 29.6817 25.3347C29.6817 24.818 29.1649 24.1025 28.6679 23.9435C28.2903 23.8242 28.0716 23.9832 28.0716 24.3807ZM22.0485 28.4154C22.0485 27.8986 21.5714 27.2229 21.0745 27.044C20.6769 26.9049 20.4384 27.0837 20.4384 27.5011C20.4583 27.998 20.9353 28.6737 21.4124 28.8526C21.81 29.0116 22.0684 28.8327 22.0485 28.4154ZM27.8728 12.6743C27.8728 12.1576 27.3957 11.4818 26.8988 11.303C26.5012 11.1638 26.2627 11.3228 26.2627 11.7601C26.2627 12.257 26.7795 12.9526 27.2566 13.1116C27.6542 13.2507 27.8728 13.1116 27.8728 12.6743ZM19.6433 12.6147C19.6433 13.1911 20.1601 13.8867 20.6968 14.0258C21.0148 14.1053 21.1938 13.9861 21.2335 13.6681C21.2931 13.1116 20.7366 12.2967 20.1998 12.1775C19.842 12.0582 19.6631 12.2172 19.6433 12.6147ZM12.1492 23.1286C12.1492 22.5522 11.5926 21.8169 11.0559 21.7175C10.7378 21.6579 10.5788 21.7771 10.5589 22.0951C10.5192 22.6516 10.9963 23.387 11.533 23.5659C11.9305 23.705 12.1492 23.546 12.1492 23.1286ZM14.4153 17.4841C14.4352 16.9475 13.9382 16.2519 13.4413 16.073C13.0437 15.9537 12.8251 16.0929 12.8052 16.4904C12.7853 17.0469 13.2822 17.7425 13.7991 17.9015C14.1966 18.0406 14.3954 17.8816 14.4153 17.4841ZM27.3957 31.2972C27.4156 30.7407 26.8789 30.0054 26.3621 29.8662C26.0241 29.7669 25.8254 29.906 25.8055 30.2439C25.7657 30.8004 26.2826 31.5556 26.8193 31.7146C27.1771 31.8537 27.3957 31.6947 27.3957 31.2972Z" fill="#FF3D00"/>
<path d="M10.7775 7.96402C11.1353 7.76527 11.3739 7.38765 11.3938 6.97027C11.3938 6.67214 11.4136 6.39389 11.4534 6.09577C11.6919 4.24739 12.5467 2.67726 13.7593 1.28601C14.3954 0.570511 15.429 0.669886 16.0452 1.44501C16.3832 1.90214 16.6615 2.37914 16.9795 2.89589C17.4168 2.41889 17.8343 1.94189 18.3312 1.54439C19.0468 0.987886 19.8022 0.530761 20.6371 0.153135C21.5912 -0.284115 22.5653 0.25251 22.7442 1.28601C22.8038 1.66364 22.8634 2.04126 22.9231 2.43876C23.0026 2.95551 22.943 3.05489 22.4858 3.29339C22.128 3.25364 21.9491 3.05489 21.9292 2.67726C21.8894 2.25989 21.8099 1.84251 21.7304 1.42514C21.6708 1.08726 21.4322 0.948136 21.0943 1.08726C20.7365 1.22639 20.3787 1.40526 20.0805 1.62389C19.1264 2.12076 18.371 2.79651 17.715 3.63127C17.5361 3.86977 17.5162 4.06852 17.6156 4.34677C17.7349 4.62502 17.8144 4.94302 17.8939 5.24114C18.0132 5.67839 17.9337 5.83739 17.5361 6.07589C17.1783 6.07589 16.9994 5.87714 16.9 5.53927C16.6018 4.30702 16.0452 3.19401 15.2899 2.18039C14.9718 1.74314 14.7134 1.72326 14.3755 2.14064C14.0773 2.49839 13.799 2.87601 13.5804 3.27351C12.0497 5.69827 12.0299 8.1429 13.481 10.6074C13.8189 11.144 13.8189 11.1241 14.2761 10.7465C14.296 10.7266 14.3158 10.7068 14.3556 10.667C14.7532 10.4484 15.0911 10.1304 15.4688 9.91177C16.403 9.4149 16.9795 8.67952 17.0391 7.60627C17.059 7.26839 17.2578 7.10939 17.5957 7.08952C17.9535 7.14914 18.0728 7.38765 18.0728 7.70565C18.0132 7.84477 17.9933 7.9839 18.0331 8.1429C18.1324 8.16277 18.212 8.10315 18.2915 8.0634C19.027 7.72552 19.8022 7.48702 20.5973 7.38765C20.8359 7.36777 20.9551 7.24852 21.0744 7.06964C21.4919 6.37402 21.7105 5.61877 21.8497 4.82377C21.9093 4.46602 22.0882 4.26727 22.4659 4.26727C22.8634 4.42627 22.943 4.60514 22.8634 5.04239C22.7243 5.79764 22.5056 6.53302 22.1478 7.24852C22.4858 7.36777 22.8237 7.32802 23.1616 7.40752C26.8788 8.12302 29.4034 10.2894 30.8743 13.7278C31.4906 15.1389 31.7092 16.6693 31.9676 18.1798C32.2062 19.6307 32.3254 21.1213 32.3453 22.592C32.3453 23.0094 32.2658 23.1287 31.8285 23.2678C31.4309 23.1883 31.3117 22.91 31.3117 22.5523C31.3117 21.4393 31.252 20.3263 31.0731 19.2133C30.775 17.2059 30.5364 15.1787 29.5823 13.37C28.0914 10.5478 25.7855 8.79877 22.5852 8.3814C20.6768 8.1429 18.9673 8.65965 17.4367 9.77265C15.1507 11.4223 12.8449 13.052 10.5589 14.7017C10.1414 14.9998 9.72399 15.2979 9.40594 15.7153C8.55118 16.5103 8.03435 17.5239 7.69642 18.6369C7.37837 19.6903 7.33861 20.7635 7.41813 21.8368C7.438 22.1747 7.31874 22.3933 7.00068 22.4927C6.54349 22.433 6.42422 22.2939 6.38446 21.8368C6.30495 20.7238 6.34471 19.6307 6.64288 18.5574C6.70251 18.3785 6.66276 18.3189 6.4441 18.3388C5.74836 18.4183 5.03275 18.3984 4.31713 18.2792C3.89969 18.1997 3.8003 18.0804 3.78042 17.6432C3.89969 17.3252 4.11835 17.2059 4.47616 17.2655C5.29116 17.4047 6.12605 17.4245 6.94105 17.2258C7.0802 17.186 7.15971 17.1264 7.23922 16.9873C7.47776 16.4507 7.81569 15.9737 8.1735 15.4967C8.39216 15.2383 8.63069 14.9799 8.90899 14.7017C7.438 14.4632 6.22544 13.847 5.15202 12.9129C5.0725 12.8533 5.01287 12.8533 4.93336 12.8732C3.93945 13.1713 3.04493 13.6284 2.26969 14.324C1.87212 14.5824 1.55407 14.9004 1.23602 15.2383C0.957727 15.5364 0.997484 15.8345 1.35529 16.0532C1.69322 16.2519 2.03115 16.4308 2.36908 16.5898C2.68713 16.7488 2.88591 16.9475 2.82627 17.3252C2.48834 17.6829 2.36908 17.7227 1.91188 17.504C1.47456 17.3053 1.01736 17.1065 0.619799 16.8084C-0.115693 16.2519 -0.215083 15.2582 0.421017 14.6023C1.47456 13.5092 2.62749 12.5949 4.05872 12.0782C4.09847 12.0583 4.13823 12.0384 4.17799 11.9987C3.85994 11.5813 3.52201 11.1838 3.22384 10.7664C2.5281 9.79252 2.86603 8.75902 3.97921 8.36152C5.3508 7.86465 6.76215 7.5864 8.23313 7.70565C8.78972 7.76527 9.34631 7.88452 9.88302 8.0634C10.1812 8.16277 10.4992 8.12302 10.7775 7.96402ZM5.58934 8.95777C5.13214 9.0174 4.73458 9.1764 4.31713 9.3354C3.87982 9.4944 3.78042 9.77265 4.05872 10.1503C4.55567 10.8856 5.13214 11.5415 5.78812 12.1179C6.94105 13.1117 8.25301 13.7278 9.82338 13.7079C9.98241 13.7079 10.1414 13.7079 10.2806 13.6085C11.0359 13.0719 11.8112 12.5154 12.5666 11.9589C12.984 11.7204 12.984 11.7204 12.7057 11.3428C12.5268 11.0645 12.3082 10.826 12.0696 10.5875C10.2209 8.81865 8.03435 8.34165 5.58934 8.95777Z" fill="#050505"/>
<path d="M7.00061 22.4926C7.31866 22.3932 7.45781 22.1746 7.41805 21.8367C7.31866 20.7635 7.3783 19.6902 7.69635 18.6369C8.03427 17.5239 8.55111 16.5102 9.40587 15.7152C9.38599 16.1525 9.16733 16.5301 9.08782 16.9475C8.63062 18.9747 8.90891 20.9225 9.72392 22.8106C10.2209 23.9833 10.9564 25.0168 11.8708 25.8913C12.3677 26.3683 12.9243 26.7658 13.461 27.203C13.3616 27.8191 13.6002 28.2961 14.0574 28.6738C14.276 28.8725 14.5344 29.0315 14.8326 28.9123C15.1507 28.7731 15.0314 28.475 15.0314 28.2166C15.0314 28.1968 15.0314 28.1968 15.0314 28.1769C15.2898 28.1968 15.4687 28.3558 15.6675 28.475C18.2119 29.906 20.8756 31.0389 23.6983 31.7544C25.1295 32.1121 26.5806 32.3904 28.0715 32.4103C28.469 32.4103 28.8268 32.2711 29.2045 32.2711C28.2702 33.4636 27.0179 33.9804 25.527 33.9009C24.1157 33.8015 22.7242 33.5233 21.3526 33.1456C18.4305 32.3308 15.7072 31.0786 13.0833 29.5681C10.6979 28.2166 8.78964 26.4676 7.87525 23.8243C7.77586 23.5261 7.53732 23.4268 7.21927 23.4466C7.15964 23.1485 7.08012 22.8305 7.00061 22.4926Z" fill="#EA0000"/>
<path d="M7.21924 23.4865C7.53729 23.4467 7.77583 23.5461 7.87522 23.8442C8.78962 26.5075 10.7178 28.2366 13.0833 29.5881C15.7072 31.0787 18.4305 32.3507 21.3526 33.1656C22.7242 33.5432 24.1157 33.8414 25.527 33.9209C27.0179 34.0202 28.2702 33.5035 29.2045 32.2911C29.5424 31.9334 29.7412 31.4961 29.9002 31.0589C30.5959 29.0912 31.0333 27.0839 31.1923 25.0168C31.232 24.5001 31.3513 24.361 31.7886 24.3013C32.0868 24.3808 32.2657 24.5597 32.2458 24.8976C32.0272 27.382 31.5899 29.8266 30.5562 32.1321C29.7014 34.0004 27.3161 35.1929 25.2686 34.9742C20.2593 34.4177 15.7668 32.5097 11.5328 29.8664C9.38596 28.5347 7.81559 26.7062 6.94095 24.3212C6.8018 23.884 6.84156 23.725 7.21924 23.4865Z" fill="#060505"/>
<path d="M22.4658 4.28727C22.0882 4.2674 21.9093 4.48602 21.8496 4.84377C21.7105 5.63877 21.4918 6.39402 21.0744 7.08965C20.9551 7.26852 20.8358 7.3679 20.5973 7.40765C19.7823 7.48715 19.0269 7.72565 18.2914 8.06352C18.2119 8.10327 18.1324 8.1629 18.033 8.14302C17.9933 7.98402 18.0131 7.8449 18.0728 7.70577C18.2119 7.70577 18.2715 7.6064 18.3511 7.5269C18.9077 6.95052 19.345 6.31452 19.663 5.57915C20.001 4.80402 20.1401 4.00902 20.1997 3.17427C20.2395 2.65752 20.3389 2.12089 20.0606 1.62402C20.3786 1.40539 20.7166 1.22652 21.0744 1.08739C21.4123 0.948266 21.631 1.08739 21.7105 1.42527C21.79 1.84264 21.8695 2.26002 21.9093 2.67739C21.949 3.03514 22.108 3.23389 22.4658 3.29352C22.4658 3.61152 22.4658 3.94939 22.4658 4.28727Z" fill="#22A77D"/>
<path d="M8.17343 15.4968C7.81563 15.9739 7.4777 16.4509 7.23916 16.9876C7.15965 17.1268 7.08013 17.1864 6.92111 17.2262C6.1061 17.425 5.27122 17.3852 4.45622 17.2659C4.11829 17.1864 3.89963 17.3256 3.78036 17.6436C3.46231 17.5244 3.14426 17.425 2.82621 17.3256C2.88584 16.9479 2.70694 16.7292 2.36901 16.5901C2.03108 16.4311 1.69315 16.2522 1.35523 16.0534C0.997419 15.8546 0.937785 15.5564 1.23596 15.2384C1.55401 14.9004 1.87206 14.5625 2.26962 14.324C2.58767 14.483 2.90572 14.642 3.22377 14.7812C4.79415 15.5167 6.42416 15.8546 8.17343 15.4968Z" fill="#22A77D"/>
<path d="M24.9309 18.1003C25.3682 18.1003 25.9645 18.6371 26.1235 19.1936C26.1633 19.3129 26.1832 19.4322 26.1832 19.5514C26.1832 19.949 25.9446 20.108 25.567 19.9888C25.0501 19.8297 24.5333 19.0545 24.5532 18.5178C24.5929 18.2792 24.7122 18.1401 24.9309 18.1003Z" fill="#090406"/>
<path d="M19.9612 21.1215C19.9414 21.5191 19.7227 21.6781 19.345 21.5589C18.8083 21.38 18.3114 20.6445 18.3511 20.1078C18.371 19.7698 18.5499 19.6307 18.8679 19.7102C19.4047 19.8096 19.9811 20.5848 19.9612 21.1215Z" fill="#070304"/>
<path d="M28.0715 24.3809C28.0715 23.9834 28.2902 23.8243 28.6678 23.9436C29.1648 24.1026 29.6816 24.8183 29.6816 25.3351C29.6816 25.7525 29.463 25.9116 29.0654 25.7724C28.5486 25.5935 28.0516 24.9176 28.0715 24.3809Z" fill="#070304"/>
<path d="M22.0485 28.4156C22.0485 28.8529 21.81 29.0119 21.4124 28.8529C20.9354 28.674 20.4583 27.9981 20.4384 27.5012C20.4185 27.0639 20.6571 26.885 21.0745 27.044C21.5715 27.203 22.0485 27.8789 22.0485 28.4156Z" fill="#070304"/>
<path d="M27.8728 12.6746C27.8728 13.0921 27.6542 13.2511 27.2566 13.1119C26.7596 12.9529 26.2627 12.2572 26.2627 11.7602C26.2627 11.3229 26.5012 11.144 26.8988 11.303C27.3759 11.4819 27.8728 12.1578 27.8728 12.6746Z" fill="#070304"/>
<path d="M19.6432 12.6149C19.6432 12.2173 19.842 12.0782 20.1998 12.1577C20.7365 12.2968 21.2931 13.092 21.2334 13.6485C21.1937 13.9865 21.0148 14.1057 20.6967 14.0064C20.1799 13.8672 19.6432 13.1715 19.6432 12.6149Z" fill="#070304"/>
<path d="M12.1492 23.1289C12.1492 23.5463 11.9306 23.7054 11.533 23.5662C10.9963 23.3873 10.5192 22.6518 10.559 22.0952C10.5788 21.7772 10.7379 21.6579 11.0559 21.7175C11.5926 21.8169 12.1492 22.5524 12.1492 23.1289Z" fill="#070304"/>
<path d="M15.0115 28.2168C15.0115 28.2367 15.0115 28.2367 15.0115 28.2565C14.9916 28.5149 15.1109 28.8131 14.8127 28.9523C14.5146 29.0715 14.2561 28.8926 14.0375 28.7137C13.6002 28.3162 13.3417 27.8391 13.4411 27.2427C13.6797 26.9843 13.9381 27.044 14.2164 27.203C14.6338 27.4216 14.8326 27.7993 15.0115 28.2168Z" fill="#070304"/>
<path d="M14.4153 17.4843C14.4153 17.8819 14.1966 18.0409 13.8189 17.9018C13.2822 17.7229 12.7853 17.0271 12.8051 16.4904C12.825 16.0929 13.0437 15.9537 13.4214 16.073C13.9382 16.2519 14.4153 16.9476 14.4153 17.4843Z" fill="#070304"/>
<path d="M13.5803 3.27351C13.799 2.87601 14.0972 2.49838 14.3754 2.14063C14.7134 1.72325 14.9718 1.74313 15.2898 2.18038C16.0452 3.19401 16.6018 4.30701 16.9 5.53926C16.9795 5.87714 17.1584 6.07589 17.5361 6.07589C17.6553 6.39389 17.5957 6.75164 17.5957 7.06964C17.2578 7.08951 17.059 7.26839 17.0391 7.58639C16.9795 8.67951 16.403 9.41489 15.4687 9.91177C15.0911 10.1304 14.7531 10.4683 14.3556 10.667C14.3158 10.4881 14.4351 10.349 14.5146 10.2099C15.0712 9.13664 15.1905 7.96401 15.0513 6.79139C14.932 5.67839 14.5146 4.64488 13.9381 3.69088C13.8387 3.53188 13.8189 3.29338 13.5803 3.27351Z" fill="#22A77D"/>
<path d="M12.5665 11.9593C11.8112 12.5159 11.0359 13.0724 10.2805 13.629C10.1414 13.7284 9.98236 13.7085 9.82334 13.7085C8.27284 13.7085 6.96088 13.1122 5.78807 12.1183C5.11222 11.5418 4.55563 10.8859 4.05867 10.1504C3.78038 9.77268 3.87977 9.49438 4.31709 9.33536C4.73453 9.17633 5.15197 9.01731 5.58929 8.95767C6.04649 9.55402 6.5832 10.0708 7.15967 10.5479C8.37223 11.5418 9.72395 12.0984 11.3142 12.0785C11.7118 12.0785 12.1491 11.999 12.5665 11.9593Z" fill="#4BB866"/>
<path d="M13.5804 3.27353C13.8388 3.2934 13.8587 3.5319 13.9382 3.6909C14.5147 4.66478 14.9321 5.69828 15.0514 6.81128C15.1905 7.96404 15.0713 9.13666 14.5147 10.2099C14.4352 10.349 14.3159 10.4882 14.3556 10.667C14.296 10.667 14.2761 10.6869 14.2761 10.7465C13.8189 11.1242 13.8189 11.144 13.481 10.6074C12.0299 8.14291 12.0498 5.69828 13.5804 3.27353Z" fill="#66C07C"/>
<path d="M12.5666 11.9595C12.1491 11.9993 11.7118 12.0788 11.2944 12.0788C9.72399 12.0986 8.3524 11.5421 7.13983 10.5482C6.56337 10.0711 6.02666 9.55424 5.56946 8.9579C8.03435 8.34168 10.2209 8.81875 12.0696 10.5879C12.3082 10.8264 12.5268 11.065 12.7057 11.3433C12.984 11.721 12.984 11.721 12.5666 11.9595Z" fill="#22A77D"/>
<path d="M17.5958 7.07055C17.5958 6.73262 17.6355 6.39469 17.5361 6.05676C17.9536 5.85798 18.0132 5.67908 17.8939 5.24176C17.8144 4.94358 17.7349 4.62553 17.6156 4.34724C17.5163 4.06894 17.5361 3.87016 17.715 3.63163C18.371 2.79674 19.1264 2.14076 20.0408 1.62393C20.3191 2.12089 20.1998 2.6576 20.1799 3.17443C20.1402 3.98943 19.9811 4.80444 19.6432 5.57968C19.345 6.31518 18.9077 6.95128 18.3511 7.54762C18.2915 7.62713 18.212 7.70665 18.0728 7.70665C18.0728 7.3886 17.9536 7.15006 17.5958 7.07055Z" fill="#3EA259"/>
<path d="M8.17359 15.497C6.44419 15.8548 4.7943 15.5169 3.22393 14.8013C2.886 14.6423 2.56795 14.4833 2.26978 14.3242C3.04502 13.6285 3.93954 13.1713 4.93345 12.8731C5.01296 12.8532 5.07259 12.8532 5.15211 12.9129C6.22553 13.8472 7.4381 14.4634 8.90908 14.7019C8.63078 14.9802 8.39225 15.2386 8.17359 15.497Z" fill="#3EA259"/>
<path d="M14.276 10.7466C14.276 10.7068 14.2959 10.6671 14.3555 10.6671C14.3158 10.7068 14.2959 10.7267 14.276 10.7466Z" fill="#4BB866"/>
</svg>
