<svg width="130" height="90" viewBox="0 0 130 90" fill="none" xmlns="http://www.w3.org/2000/svg">
<path opacity="0.2" d="M44.6875 45L12.1875 45L12.1875 77.7273L44.6875 77.7273L44.6875 45ZM117.813 45L85.3125 45L85.3125 77.7273L117.813 77.7273L117.813 45ZM35.3438 -8.27511e-06L19.0938 32.7273L56.875 32.7273L56.875 90L0 90L5.15e-06 31.0909L15.4375 -1.00154e-05L35.3438 -8.27511e-06ZM108.469 -1.88232e-06L92.2188 32.7273L130 32.7273L130 90L73.125 90L73.125 31.0909L88.5625 -3.62258e-06L108.469 -1.88232e-06Z" fill="#FCBA00" fill-opacity="0.25"/>
</svg>
